<svg width="20" height="20" viewBox="0 0 20 20" fill="none" xmlns="http://www.w3.org/2000/svg">
<path d="M16.0916 8.5457C16.0916 13.6366 9.5458 18.0002 9.5458 18.0002C9.5458 18.0002 3 13.6366 3 8.5457C3 6.80974 3.68964 5.14487 4.91722 3.91736C6.1448 2.68985 7.80975 2.00024 9.5458 2.00024C11.2819 2.00024 12.9468 2.68985 14.1744 3.91736C15.402 5.14487 16.0916 6.80974 16.0916 8.5457Z" stroke="#3B3B3B" stroke-width="1.5" stroke-linecap="round" stroke-linejoin="round"/>
<path d="M9.5457 10.7274C10.7508 10.7274 11.7276 9.75057 11.7276 8.54559C11.7276 7.3406 10.7508 6.36377 9.5457 6.36377C8.34065 6.36377 7.36377 7.3406 7.36377 8.54559C7.36377 9.75057 8.34065 10.7274 9.5457 10.7274Z" stroke="#3B3B3B" stroke-width="1.5" stroke-linecap="round" stroke-linejoin="round"/>
</svg>
