<svg width="16" height="17" viewBox="0 0 16 17" fill="none" xmlns="http://www.w3.org/2000/svg">
<path d="M14.5266 4.93515L10.2757 1.69338C9.62154 1.19634 8.82255 0.927246 8.00095 0.927246C7.17936 0.927246 6.38037 1.19634 5.72617 1.69338L1.47634 4.93515C1.01855 5.28627 0.6474 5.73774 0.391456 6.2548C0.135511 6.77187 0.00159133 7.34076 0 7.91771V13.1766C0.00112933 14.171 0.396643 15.1243 1.09977 15.8275C1.8029 16.5306 2.75622 16.9261 3.7506 16.9272H12.2524C13.2464 16.9256 14.1992 16.5298 14.9018 15.8267C15.6045 15.1237 15.9997 14.1707 16.0008 13.1766V7.91771C15.9999 7.34004 15.8663 6.77031 15.6103 6.25245C15.3544 5.73459 14.9829 5.28245 14.5245 4.93088L14.5266 4.93515ZM14.7528 13.1766C14.7519 13.8395 14.4882 14.475 14.0195 14.9438C13.5508 15.4125 12.9153 15.6762 12.2524 15.677H3.7506C3.08771 15.6762 2.45222 15.4125 1.98348 14.9438C1.51475 14.475 1.25105 13.8395 1.2502 13.1766V7.91771C1.25136 7.53306 1.34071 7.1538 1.5114 6.80909C1.68209 6.46439 1.92956 6.16342 2.23478 5.92933L6.48567 2.68756C6.92178 2.35629 7.45437 2.17694 8.00202 2.17694C8.54968 2.17694 9.08227 2.35629 9.51837 2.68756L13.7693 5.92933C14.0743 6.16353 14.3216 6.46454 14.4921 6.80924C14.6626 7.15394 14.7517 7.53314 14.7528 7.91771V13.1766ZM13.4055 8.61001C13.506 8.74173 13.5501 8.90797 13.5281 9.07218C13.5061 9.2364 13.4198 9.38517 13.2882 9.48579L10.2757 11.7835C9.62154 12.2805 8.82255 12.5496 8.00095 12.5496C7.17936 12.5496 6.38037 12.2805 5.72617 11.7835L2.74681 9.51032C2.61497 9.40975 2.52849 9.26092 2.50638 9.09658C2.48428 8.93224 2.52836 8.76585 2.62894 8.63401C2.72951 8.50217 2.87834 8.41569 3.04268 8.39358C3.20702 8.37148 3.37341 8.41556 3.50525 8.51614L6.48567 10.7893C6.92178 11.1206 7.45437 11.2999 8.00202 11.2999C8.54968 11.2999 9.08227 11.1206 9.51837 10.7893L12.5297 8.4916C12.6615 8.3911 12.8277 8.34701 12.9919 8.36901C13.1561 8.39102 13.3049 8.47731 13.4055 8.60894V8.61001Z" fill="#3B3B3B"/>
</svg>
