<svg width="17" height="18" viewBox="0 0 17 18" fill="none" xmlns="http://www.w3.org/2000/svg">
<path d="M13.8007 8.20007H2.60008C1.71638 8.20007 1 8.91642 1 9.80007V15.4001C1 16.2837 1.71638 17.0001 2.60008 17.0001H13.8007C14.6844 17.0001 15.4008 16.2837 15.4008 15.4001V9.80007C15.4008 8.91642 14.6844 8.20007 13.8007 8.20007Z" stroke="#3B3B3B" stroke-width="1.5" stroke-linecap="round" stroke-linejoin="round"/>
<path d="M4.20068 8.2V5C4.20068 3.93913 4.62213 2.92172 5.37232 2.17157C6.1225 1.42143 7.13997 1 8.2009 1C9.26182 1 10.2793 1.42143 11.0295 2.17157C11.7797 2.92172 12.2011 3.93913 12.2011 5V8.2" stroke="#3B3B3B" stroke-width="1.5" stroke-linecap="round" stroke-linejoin="round"/>
</svg>
