<svg width="18" height="18" viewBox="0 0 18 18" fill="none" xmlns="http://www.w3.org/2000/svg">
<path d="M7.47273 3.35645C7.97333 3.23927 8.48586 3.18069 9 3.1819C14.0909 3.1819 17 9.00008 17 9.00008C16.5585 9.82598 16.032 10.6035 15.4291 11.3201M10.5418 10.5419C10.3421 10.7563 10.1012 10.9282 9.83356 11.0474C9.56593 11.1667 9.27702 11.2308 8.98406 11.236C8.69111 11.2412 8.40012 11.1873 8.12844 11.0775C7.85677 10.9678 7.60998 10.8045 7.4028 10.5973C7.19561 10.3901 7.03228 10.1433 6.92255 9.87164C6.81282 9.59996 6.75893 9.30897 6.7641 9.01602C6.76926 8.72306 6.83339 8.43415 6.95264 8.16652C7.07189 7.89888 7.24382 7.65801 7.45818 7.45827M13.32 13.3201C12.0768 14.2677 10.563 14.7927 9 14.8183C3.90909 14.8183 1 9.00008 1 9.00008C1.90465 7.31419 3.15937 5.84125 4.68 4.68008L13.32 13.3201Z" stroke="#3B3B3B" stroke-width="1.5" stroke-linecap="round" stroke-linejoin="round"/>
<path d="M1 1L17 17" stroke="#3B3B3B" stroke-width="1.5" stroke-linecap="round" stroke-linejoin="round"/>
</svg>
