<svg width="18" height="18" viewBox="0 0 18 18" fill="none" xmlns="http://www.w3.org/2000/svg">
<path d="M16.9691 12.9786V15.3872C16.97 15.6108 16.9242 15.8322 16.8347 16.037C16.7451 16.2419 16.6137 16.4258 16.4489 16.577C16.2841 16.7282 16.0896 16.8432 15.8778 16.9149C15.6659 16.9865 15.4415 17.0131 15.2188 16.993C12.748 16.7245 10.3747 15.8803 8.28953 14.5281C6.34952 13.2955 4.70474 11.6508 3.47198 9.71086C2.11502 7.6163 1.27056 5.23157 1.00701 2.74987C0.986941 2.52785 1.01333 2.30408 1.08449 2.09281C1.15565 1.88155 1.27002 1.68741 1.42032 1.52276C1.57063 1.35812 1.75357 1.22657 1.9575 1.1365C2.16143 1.04643 2.38189 0.999799 2.60482 0.99959H5.0136C5.40326 0.995755 5.78103 1.13373 6.07648 1.38781C6.37193 1.64188 6.56491 1.99472 6.61945 2.38055C6.72111 3.15137 6.90966 3.90821 7.18149 4.63664C7.28952 4.92401 7.3129 5.23633 7.24886 5.53658C7.18483 5.83683 7.03605 6.11243 6.82018 6.33072L5.80046 7.35038C6.94347 9.36043 8.60785 11.0247 10.618 12.1677L11.6377 11.148C11.856 10.9321 12.1316 10.7834 12.4319 10.7194C12.7322 10.6553 13.0445 10.6787 13.3319 10.7867C14.0604 11.0585 14.8172 11.2471 15.5881 11.3487C15.9781 11.4038 16.3343 11.6002 16.589 11.9007C16.8436 12.2012 16.9789 12.5848 16.9691 12.9786Z" stroke="#3B3B3B" stroke-width="1.5" stroke-linecap="round" stroke-linejoin="round"/>
</svg>
